<?xml version="1.0" encoding="UTF-8"?>
<svg version="1.1" xmlns="http://www.w3.org/2000/svg" width="387" height="454">
<path d="M0 0 C1.88989372 -0.0020246 3.77978667 -0.00493924 5.66967773 -0.00869751 C9.61677542 -0.01310268 13.56366843 -0.00674829 17.51074219 0.00732422 C22.54742224 0.02441495 27.58362254 0.01456404 32.62028503 -0.00339317 C36.51871293 -0.01428 40.41702877 -0.01076228 44.31546021 -0.0030098 C46.17164162 -0.00102131 48.02783351 -0.00341907 49.88400269 -0.01044846 C64.8405934 -0.05467174 75.95700021 0.92429147 87.5625 11.3984375 C95.27037985 20.39096399 97.59772453 30.5795352 97.87890625 42.203125 C97.89968735 42.9271048 97.92046844 43.65108459 97.94187927 44.39700317 C98.00678853 46.68905989 98.06598437 48.98122224 98.125 51.2734375 C98.16824112 52.83594803 98.21185711 54.39844822 98.25585938 55.9609375 C98.36240896 59.77333176 98.46383795 63.5858313 98.5625 67.3984375 C101.96534586 64.02028022 105.36491739 60.63887467 108.76147461 57.25439453 C109.91780245 56.10310055 111.07502554 54.95270501 112.2331543 53.80322266 C113.89607211 52.15241174 115.5557611 50.49841413 117.21484375 48.84375 C117.99455788 48.0717778 117.99455788 48.0717778 118.7900238 47.28421021 C121.51791689 44.59994436 121.51791689 44.59994436 123.5625 41.3984375 C124.2225 41.3984375 124.8825 41.3984375 125.5625 41.3984375 C125.5625 40.7384375 125.5625 40.0784375 125.5625 39.3984375 C126.2225 39.3984375 126.8825 39.3984375 127.5625 39.3984375 C127.76705811 38.8729834 127.97161621 38.3475293 128.18237305 37.80615234 C130.17059866 34.33757265 132.85615996 31.71900535 135.64453125 28.875 C136.2545549 28.25120453 136.86457855 27.62740906 137.49308777 26.98471069 C138.78891987 25.66562337 140.08777215 24.34949717 141.3894043 23.03613281 C143.34607145 21.05276087 145.27725976 19.04669131 147.20898438 17.0390625 C148.47765396 15.75371349 149.74779439 14.46981429 151.01953125 13.1875 C151.86098442 12.3012645 151.86098442 12.3012645 152.71943665 11.39712524 C162.20631594 2.00834268 172.77470723 -0.37091566 185.63728333 -0.35829163 C187.40012902 -0.33760101 189.16296198 -0.31580029 190.92578125 -0.29296875 C192.77133391 -0.28938304 194.61689213 -0.28803604 196.46244812 -0.2888031 C200.30613113 -0.28414175 204.14896269 -0.25952586 207.99243164 -0.21899414 C212.90261374 -0.16784747 217.81186976 -0.15655825 222.72228718 -0.15882969 C226.52374499 -0.15801188 230.32500312 -0.14152802 234.12639427 -0.11982536 C235.93676434 -0.11032889 237.74715683 -0.10437812 239.55755043 -0.10214424 C242.08864118 -0.09559491 244.61877544 -0.06924596 247.1496582 -0.03735352 C247.88593445 -0.03871307 248.62221069 -0.04007263 249.38079834 -0.04147339 C258.34547939 0.12262218 264.83434289 3.59524812 271.28515625 9.7578125 C277.76015185 17.26569762 279.3326191 25.48972193 278.90625 35.2109375 C277.43270872 48.87468391 266.3470806 57.83380792 257.02270508 66.953125 C256.34747803 67.61441406 255.67225098 68.27570313 254.9765625 68.95703125 C254.3676416 69.54798584 253.7587207 70.13894043 253.13134766 70.74780273 C251.35904186 72.51821173 251.35904186 72.51821173 249.5625 75.3984375 C248.9025 75.3984375 248.2425 75.3984375 247.5625 75.3984375 C247.33522217 75.95241211 247.10794434 76.50638672 246.8737793 77.07714844 C245.17987876 80.07577184 243.04027093 82.12638211 240.58203125 84.5390625 C240.09095383 85.02493835 239.5998764 85.51081421 239.09391785 86.01141357 C237.52564352 87.56194053 235.95086518 89.10562906 234.375 90.6484375 C232.31555439 92.67099847 230.25938327 94.69680355 228.20703125 96.7265625 C227.70949341 97.21855637 227.21195557 97.71055023 226.69934082 98.217453 C223.3458385 101.55740151 220.19110879 105.01180093 217.12084961 108.61083984 C214.5348176 111.57730175 211.7406696 114.32635786 208.9375 117.0859375 C208.3909375 117.62798828 207.844375 118.17003906 207.28125 118.72851562 C204.85734363 121.13212613 202.42854229 123.53076158 200 125.9296875 C197.33113326 128.63277048 194.74711843 131.405106 192.1875 134.2109375 C191.71143311 134.73139648 191.23536621 135.25185547 190.74487305 135.78808594 C186.9576119 139.93966688 183.23104631 144.1414213 179.5625 148.3984375 C180.98173989 152.85890572 183.42889504 155.7266721 186.625 159.0234375 C190.20493062 162.81886476 193.66151155 166.64482197 196.9375 170.7109375 C200.49566423 175.12534446 204.15334139 179.43474521 207.875 183.7109375 C208.42768555 184.34604248 208.98037109 184.98114746 209.54980469 185.63549805 C210.67035785 186.92289709 211.79096334 188.2102506 212.91162109 189.49755859 C219.81339085 197.44449432 226.62937286 205.46521649 233.4206543 213.5065918 C238.76736541 219.83291146 244.16607521 226.11453249 249.5625 232.3984375 C251.70885913 234.89798676 253.85459058 237.39807308 256 239.8984375 C256.4839624 240.46167725 256.9679248 241.02491699 257.46655273 241.60522461 C258.38575675 242.67653748 259.30307119 243.74947525 260.21826172 244.82421875 C261.14579181 245.91043634 262.08015868 246.9908402 263.02001953 248.06640625 C266.5625 252.17752514 266.5625 252.17752514 266.5625 254.3984375 C267.2225 254.3984375 267.8825 254.3984375 268.5625 254.3984375 C276.48342197 265.33503578 280.02309791 276.94124324 278.5625 290.3984375 C276.84796314 297.7215441 273.50275831 304.68185288 268.5625 310.3984375 C267.9025 310.3984375 267.2425 310.3984375 266.5625 310.3984375 C266.2325 311.3884375 265.9025 312.3784375 265.5625 313.3984375 C257.15280701 319.80582264 246.94148855 323.50342872 236.37242126 323.53887939 C235.34794891 323.54458954 234.32347656 323.55029968 233.26795959 323.55618286 C232.15464767 323.55730072 231.04133575 323.55841858 229.89428711 323.55957031 C228.71314331 323.56453522 227.53199951 323.56950012 226.31506348 323.57461548 C223.08118002 323.58670094 219.84733267 323.59417686 216.61343074 323.59862614 C214.58794744 323.60156525 212.5624697 323.60567174 210.53698921 323.61013031 C204.18527948 323.6237977 197.83358256 323.63346658 191.48185915 323.6373322 C184.17733217 323.64180331 176.87299321 323.65931013 169.56852335 323.6883328 C163.90543302 323.71004345 158.2423952 323.72004155 152.57926375 323.72137332 C149.20527974 323.72241519 145.83147264 323.72818893 142.45753288 323.74619293 C138.68370442 323.76335581 134.91032688 323.76134761 131.13647461 323.75488281 C130.03733231 323.7640976 128.93819 323.77331238 127.80574036 323.7828064 C114.65326027 323.7126595 104.8417841 320.66200754 94.875 312.0859375 C83.22070725 298.54175944 83.11108245 284.09342516 83.375 267.0234375 C83.39009088 265.30469937 83.40377141 263.58594826 83.41601562 261.8671875 C83.448634 257.71060899 83.50016607 253.55467219 83.5625 249.3984375 C80.40134224 250.76827253 79.5697908 251.3875013 77.5625 254.3984375 C76.9025 254.3984375 76.2425 254.3984375 75.5625 254.3984375 C75.32168701 254.96594727 75.08087402 255.53345703 74.83276367 256.11816406 C73.30624592 258.85844386 71.48049033 260.68883041 69.23828125 262.8828125 C68.37396484 263.73617188 67.50964844 264.58953125 66.61914062 265.46875 C65.71357422 266.35304688 64.80800781 267.23734375 63.875 268.1484375 C56.89522195 274.92166132 56.89522195 274.92166132 50.3359375 282.09375 C45.13482862 288.15750791 39.48836958 293.80953367 33.8762207 299.48974609 C32.54467271 300.84289905 31.21942344 302.20227985 29.90063477 303.56787109 C19.39252789 314.44355896 9.93004592 323.25210483 -6.00756836 323.69091797 C-18.80174819 323.81556128 -29.23781352 320.30347489 -38.6328125 311.29296875 C-45.01713578 304.44925689 -49.54647385 297.36893352 -49.57451439 287.81678009 C-49.57958893 286.89659985 -49.58466347 285.97641961 -49.58989179 285.02835512 C-49.59038955 284.02098157 -49.59088731 283.01360803 -49.59140015 281.97570801 C-49.5957824 280.90269928 -49.60016465 279.82969054 -49.6046797 278.72416639 C-49.61807099 275.11623937 -49.62424737 271.50833678 -49.63037109 267.90039062 C-49.63827188 265.31831756 -49.64654081 262.7362456 -49.65515137 260.1541748 C-49.67965723 252.39599165 -49.69430089 244.63780212 -49.70721143 236.87959218 C-49.71092502 234.68705342 -49.71489813 232.49451529 -49.7189641 230.30197716 C-49.74420489 216.67721818 -49.76625103 203.05245816 -49.77869225 189.42768097 C-49.78162179 186.27275082 -49.78458347 183.1178207 -49.78759766 179.96289062 C-49.78834371 179.17877806 -49.78908976 178.39466549 -49.78985842 177.58679193 C-49.80250232 164.8948264 -49.83571325 152.20300126 -49.87739949 139.51110131 C-49.91987839 126.4705727 -49.94339423 113.43011585 -49.94861281 100.38951826 C-49.95202044 93.07180324 -49.96369858 85.75430752 -49.99671555 78.43666077 C-50.02774421 71.54850994 -50.03309954 64.66074641 -50.02133179 57.77253723 C-50.02111124 55.24906999 -50.02940074 52.72558493 -50.04698563 50.20217896 C-50.21206248 25.14277497 -50.21206248 25.14277497 -42.25 13.0859375 C-29.32360272 0.73404677 -17.03514676 -0.0645128 0 0 Z M93.16137695 74.55664062 C92.36413208 75.36004883 92.36413208 75.36004883 91.55078125 76.1796875 C90.66036133 77.07300781 90.66036133 77.07300781 89.75195312 77.984375 C89.13255859 78.61601563 88.51316406 79.24765625 87.875 79.8984375 C87.27494141 80.49914062 86.67488281 81.09984375 86.05664062 81.71875 C83.00848162 84.79637564 80.07522766 87.92836849 77.2578125 91.21875 C71.97805098 97.32692754 66.10113288 102.86593661 60.33007812 108.50390625 C59.02393555 109.79361328 59.02393555 109.79361328 57.69140625 111.109375 C56.89806885 111.88587402 56.10473145 112.66237305 55.28735352 113.46240234 C53.34076306 115.21516558 53.34076306 115.21516558 53.5625 117.3984375 C52.5725 117.7284375 51.5825 118.0584375 50.5625 118.3984375 C48.96707444 119.97229399 48.96707444 119.97229399 47.40625 121.9296875 C42.86592792 127.28078138 37.88213573 132.12924248 32.87890625 137.04296875 C28.8553706 141.0228494 25.04326688 145.091603 21.35302734 149.38085938 C18.10322732 153.04275567 14.60636875 156.4584757 11.125 159.8984375 C10.39345703 160.62546875 9.66191406 161.3525 8.90820312 162.1015625 C7.12860176 163.86953249 5.34669082 165.63510128 3.5625 167.3984375 C3.8925 168.3884375 4.2225 169.3784375 4.5625 170.3984375 C5.98070793 170.40723686 5.98070793 170.40723686 7.42756653 170.41621399 C16.33006696 170.4733831 25.23232176 170.54611395 34.13457203 170.63415241 C38.71152302 170.67891389 43.2883838 170.7181571 47.86547852 170.74487305 C52.28118419 170.77084863 56.69654381 170.81120977 61.11203575 170.86162376 C62.79812001 170.8783315 64.48426417 170.8898214 66.17041969 170.89605141 C68.52910418 170.90565035 70.8868955 170.93365734 73.24536133 170.96606445 C73.94523163 170.96462936 74.64510193 170.96319427 75.36618042 170.9617157 C78.06809574 171.01435247 80.12496438 171.14686766 82.49279785 172.50830078 C84.11155121 175.36859715 83.96507523 177.80119759 83.99487305 181.07299805 C84.01016052 182.08314972 84.01016052 182.08314972 84.02575684 183.1137085 C84.05592906 185.33760857 84.06515875 187.56107824 84.07421875 189.78515625 C84.09106239 191.32788021 84.10921221 192.87059042 84.12861633 194.4132843 C84.17615704 198.47221581 84.20593983 202.53109159 84.23205566 206.59020996 C84.26184082 210.73277802 84.30837811 214.87515393 84.35351562 219.01757812 C84.43959496 227.14443694 84.5069194 235.27131316 84.5625 243.3984375 C87.32511241 242.06423085 89.39876126 240.81759686 91.578125 238.6484375 C92.10664063 238.1225 92.63515625 237.5965625 93.1796875 237.0546875 C93.98792969 236.23484375 93.98792969 236.23484375 94.8125 235.3984375 C95.36679688 234.851875 95.92109375 234.3053125 96.4921875 233.7421875 C99.55465775 231.07242982 99.55465775 231.07242982 100.5625 227.3984375 C101.2225 227.3984375 101.8825 227.3984375 102.5625 227.3984375 C104.03090472 225.94399808 104.03090472 225.94399808 105.56640625 224.015625 C110.72022599 217.95183605 116.45871231 212.4907661 122.15039062 206.9375 C122.97603516 206.1228125 123.80167969 205.308125 124.65234375 204.46875 C125.40378662 203.73414551 126.15522949 202.99954102 126.92944336 202.24267578 C128.78348054 200.55943865 128.78348054 200.55943865 128.5625 198.3984375 C129.2225 198.3984375 129.8825 198.3984375 130.5625 198.3984375 C131.89250656 197.08260077 131.89250656 197.08260077 133.3125 195.2734375 C137.54795856 190.25229687 142.22179058 185.71137261 146.93847656 181.14794922 C147.53499023 180.56287598 148.13150391 179.97780273 148.74609375 179.375 C149.28806396 178.84986816 149.83003418 178.32473633 150.38842773 177.78369141 C151.77802094 176.44679513 151.77802094 176.44679513 151.5625 174.3984375 C152.2225 174.3984375 152.8825 174.3984375 153.5625 174.3984375 C155.08216706 172.89593119 155.08216706 172.89593119 156.66015625 170.92578125 C160.54505828 166.35596001 164.72217906 162.16048175 169 157.9609375 C170.43843642 156.54784797 171.87476442 155.13260777 173.30859375 153.71484375 C173.93435303 153.10068604 174.5601123 152.48652832 175.20483398 151.85375977 C176.6761913 150.608282 176.6761913 150.608282 176.5625 149.3984375 C137.4575 148.9034375 137.4575 148.9034375 97.5625 148.3984375 C97.2325 123.6484375 96.9025 98.8984375 96.5625 73.3984375 C94.51644431 73.18606155 94.51644431 73.18606155 93.16137695 74.55664062 Z " fill="#0753B4" transform="translate(83.4375,28.6015625)"/>
<path d="M0 0 C10.83984375 -0.09765625 10.83984375 -0.09765625 14 0 C15.69295345 1.69295345 15.12749729 3.82896484 15.12939453 6.14648438 C15.13254669 7.24432251 15.13569885 8.34216064 15.13894653 9.4732666 C15.1369223 10.66802612 15.13489807 11.86278564 15.1328125 13.09375 C15.13376923 14.31074585 15.13472595 15.5277417 15.13571167 16.78161621 C15.13639372 19.36075899 15.13453772 21.93990347 15.13037109 24.51904297 C15.12502322 28.48278636 15.13031529 32.44641642 15.13671875 36.41015625 C15.13605797 38.90885442 15.13477682 41.40755252 15.1328125 43.90625 C15.13483673 45.10100952 15.13686096 46.29576904 15.13894653 47.5267334 C15.13421829 49.1734906 15.13421829 49.1734906 15.12939453 50.85351562 C15.12859894 51.8253479 15.12780334 52.79718018 15.12698364 53.79846191 C15 56 15 56 14 57 C12.02486333 57.15126231 10.04321865 57.22173766 8.0625 57.25 C6.98097656 57.27578125 5.89945313 57.3015625 4.78515625 57.328125 C3.86605469 57.21984375 2.94695312 57.1115625 2 57 C1.34 56.01 0.68 55.02 0 54 C-1.03125 54.495 -2.0625 54.99 -3.125 55.5 C-9.12244336 57.74233571 -15.70751214 57.95477414 -22 57 C-25.50234997 54.77744876 -27.49135365 52.84057061 -29 49 C-29.43011591 44.53176481 -29.3242393 40.0492616 -29.3125 35.5625 C-29.33666992 33.72075195 -29.33666992 33.72075195 -29.36132812 31.84179688 C-29.36197266 30.65779297 -29.36261719 29.47378906 -29.36328125 28.25390625 C-29.36775269 26.63464233 -29.36775269 26.63464233 -29.37231445 24.98266602 C-28.83680133 20.69259136 -27.18133376 18.05746575 -23.98828125 15.19921875 C-19.42748651 13.36893903 -15.04828202 13.68518603 -10.1875 13.8125 C-9.20845703 13.82603516 -8.22941406 13.83957031 -7.22070312 13.85351562 C-4.81356459 13.88874204 -2.40671057 13.94254537 0 14 C0 9.38 0 4.76 0 0 Z M-14 25 C-15.57924842 28.15849685 -15.14316514 31.5365128 -15.125 35 C-15.12886719 35.73734375 -15.13273438 36.4746875 -15.13671875 37.234375 C-15.21417412 41.24721641 -15.21417412 41.24721641 -14 45 C-12.22925083 45.02705729 -10.45838289 45.04642195 -8.6875 45.0625 C-7.70136719 45.07410156 -6.71523437 45.08570313 -5.69921875 45.09765625 C-2.90036151 45.12329862 -2.90036151 45.12329862 0 44 C0 37.73 0 31.46 0 25 C-4.62 25 -9.24 25 -14 25 Z " fill="#0D55B7" transform="translate(222,368)"/>
<path d="M0 0 C1.22332031 -0.01998047 2.44664063 -0.03996094 3.70703125 -0.06054688 C4.88652344 -0.05990234 6.06601563 -0.05925781 7.28125 -0.05859375 C8.35439453 -0.06044678 9.42753906 -0.0622998 10.53320312 -0.06420898 C14.23761496 0.56223657 15.85211627 1.81014026 18.5 4.4375 C20.47228322 7.39851701 20.74045432 9.68206304 20.6953125 13.203125 C20.69031738 14.00524414 20.68532227 14.80736328 20.68017578 15.63378906 C20.66196777 16.64151367 20.64375977 17.64923828 20.625 18.6875 C20.58375 21.905 20.5425 25.1225 20.5 28.4375 C11.59 28.4375 2.68 28.4375 -6.5 28.4375 C-6.17 29.7575 -5.84 31.0775 -5.5 32.4375 C-4.77820557 32.43226318 -4.05641113 32.42702637 -3.31274414 32.42163086 C-0.06267151 32.40092642 3.18738728 32.38786082 6.4375 32.375 C7.57380859 32.36662109 8.71011719 32.35824219 9.88085938 32.34960938 C10.96044922 32.34638672 12.04003906 32.34316406 13.15234375 32.33984375 C14.65269165 32.33198853 14.65269165 32.33198853 16.18334961 32.32397461 C18.5 32.4375 18.5 32.4375 19.5 33.4375 C19.5979057 34.93488124 19.62974864 36.43692892 19.625 37.9375 C19.62886719 39.15953125 19.62886719 39.15953125 19.6328125 40.40625 C19.5 42.4375 19.5 42.4375 18.5 43.4375 C11.78187049 44.55056288 5.11130031 44.65427434 -1.6875 44.6875 C-2.75419922 44.708125 -3.82089844 44.72875 -4.91992188 44.75 C-6.46583008 44.75773437 -6.46583008 44.75773437 -8.04296875 44.765625 C-8.97133545 44.7749707 -9.89970215 44.78431641 -10.85620117 44.79394531 C-14.06226877 44.36169315 -15.89866365 43.33615575 -18.5 41.4375 C-22.41484535 35.56523198 -21.71557275 28.89630941 -21.75 22.0625 C-21.770625 21.04671875 -21.79125 20.0309375 -21.8125 18.984375 C-21.84336756 13.04236896 -21.61780078 8.57509345 -18.5 3.4375 C-12.78522051 -0.82348678 -6.84850108 -0.039691 0 0 Z M-6.5 11.4375 C-6.5 13.4175 -6.5 15.3975 -6.5 17.4375 C-2.21 17.4375 2.08 17.4375 6.5 17.4375 C6.5 15.7875 6.5 14.1375 6.5 12.4375 C4.69114534 10.20555231 4.69114534 10.20555231 2.15234375 10.20703125 C1.25644531 10.22121094 0.36054687 10.23539062 -0.5625 10.25 C-1.91021484 10.25966797 -1.91021484 10.25966797 -3.28515625 10.26953125 C-5.47325599 10.19355257 -5.47325599 10.19355257 -6.5 11.4375 Z " fill="#0D55B7" transform="translate(115.5,380.5625)"/>
<path d="M0 0 C4.62 0 9.24 0 14 0 C14 9.24 14 18.48 14 28 C20.82856191 27.83374977 20.82856191 27.83374977 23.1796875 24.3125 C23.73914063 23.219375 24.29859375 22.12625 24.875 21 C25.73738281 19.3603125 25.73738281 19.3603125 26.6171875 17.6875 C27.07351562 16.800625 27.52984375 15.91375 28 15 C29 14 29 14 32.37890625 13.90234375 C33.77347077 13.90901631 35.16801743 13.92097468 36.5625 13.9375 C37.27341797 13.94201172 37.98433594 13.94652344 38.71679688 13.95117188 C40.47790013 13.96299136 42.23896036 13.98092737 44 14 C42.95243803 17.19084966 41.60924266 19.62604371 39.5546875 22.2421875 C35.42462132 27.68392264 35.42462132 27.68392264 33 34 C33.7909903 39.07249743 36.92524219 43.17252845 39.85742188 47.2578125 C41.66619994 50.01581256 42.79624016 52.93588404 44 56 C43 57 43 57 39.83984375 57.09765625 C38.55207031 57.08605469 37.26429687 57.07445312 35.9375 57.0625 C34.64714844 57.05347656 33.35679688 57.04445313 32.02734375 57.03515625 C31.02832031 57.02355469 30.02929688 57.01195312 29 57 C28.41992188 55.85660156 27.83984375 54.71320313 27.2421875 53.53515625 C26.45423878 52.04368189 25.6651145 50.55282816 24.875 49.0625 C24.49601562 48.30775391 24.11703125 47.55300781 23.7265625 46.77539062 C23.14648438 45.69741211 23.14648438 45.69741211 22.5546875 44.59765625 C22.20905762 43.93258057 21.86342773 43.26750488 21.50732422 42.58227539 C19.66000007 40.32584246 19.66000007 40.32584246 14 40 C14 45.61 14 51.22 14 57 C9.38 57 4.76 57 0 57 C0 38.19 0 19.38 0 0 Z " fill="#0A54B7" transform="translate(48,368)"/>
<path d="M0 0 C2.67152235 1.5545778 3.84485045 3.15081186 5.0402832 5.9675293 C6.02023288 9.72698262 6.18088396 13.22101025 6.140625 17.07421875 C6.14016678 17.79582687 6.13970856 18.517435 6.13923645 19.26091003 C6.13623266 20.77446147 6.12840301 22.28801034 6.1159668 23.80151367 C6.0975743 26.12755146 6.0954583 28.45319355 6.09570312 30.77929688 C6.09079232 32.25260763 6.08496592 33.72591569 6.078125 35.19921875 C6.07701218 35.89706985 6.07589935 36.59492096 6.07475281 37.31391907 C6.02625376 42.18858999 6.02625376 42.18858999 4.91015625 43.3046875 C2.74534828 43.4036169 0.5772184 43.4343985 -1.58984375 43.4296875 C-2.77578125 43.43226563 -3.96171875 43.43484375 -5.18359375 43.4375 C-8.08984375 43.3046875 -8.08984375 43.3046875 -9.08984375 42.3046875 C-9.2485833 40.08780756 -9.34118212 37.86613452 -9.40625 35.64453125 C-9.4270311 34.98006485 -9.44781219 34.31559845 -9.46922302 33.6309967 C-9.53478033 31.50150207 -9.5936316 29.37188082 -9.65234375 27.2421875 C-9.69552314 25.80141903 -9.73913724 24.36066351 -9.78320312 22.91992188 C-9.89046768 19.3816471 -9.99171746 15.84322881 -10.08984375 12.3046875 C-14.37984375 12.3046875 -18.66984375 12.3046875 -23.08984375 12.3046875 C-23.08460693 13.20823975 -23.07937012 14.11179199 -23.07397461 15.04272461 C-23.05696689 18.38420239 -23.04441042 21.72563442 -23.03491211 25.06713867 C-23.02987274 26.51538823 -23.02304122 27.96363267 -23.0144043 29.41186523 C-23.00232128 31.48943338 -22.99661164 33.56693447 -22.9921875 35.64453125 C-22.98695068 36.89613037 -22.98171387 38.14772949 -22.97631836 39.43725586 C-23.08984375 42.3046875 -23.08984375 42.3046875 -24.08984375 43.3046875 C-26.25465172 43.4036169 -28.4227816 43.4343985 -30.58984375 43.4296875 C-31.77578125 43.43226563 -32.96171875 43.43484375 -34.18359375 43.4375 C-37.08984375 43.3046875 -37.08984375 43.3046875 -38.08984375 42.3046875 C-38.1785851 39.20217549 -38.2050283 36.1220063 -38.1875 33.01953125 C-38.18608505 32.08871231 -38.1846701 31.15789337 -38.18321228 30.1988678 C-38.17759547 27.21327559 -38.16504015 24.22775721 -38.15234375 21.2421875 C-38.14733091 19.22330837 -38.14276763 17.20442807 -38.13867188 15.18554688 C-38.12762058 10.22523178 -38.1103447 5.26497218 -38.08984375 0.3046875 C-33.79984375 0.3046875 -29.50984375 0.3046875 -25.08984375 0.3046875 C-25.08984375 1.2946875 -25.08984375 2.2846875 -25.08984375 3.3046875 C-24.23326172 2.8715625 -24.23326172 2.8715625 -23.359375 2.4296875 C-15.99975725 -0.94005799 -7.91302637 -2.63274522 0 0 Z " fill="#1056B7" transform="translate(181.08984375,381.6953125)"/>
<path d="M0 0 C5.61 0 11.22 0 17 0 C22 8.75 22 8.75 22 11 C22.66 11 23.32 11 24 11 C24.268125 10.113125 24.53625 9.22625 24.8125 8.3125 C26.8893617 2.51914894 26.8893617 2.51914894 29 0 C31.94093052 -0.37859559 34.27644958 -0.47775614 37.1875 -0.3125 C37.93708984 -0.28994141 38.68667969 -0.26738281 39.45898438 -0.24414062 C41.3068447 -0.18529157 43.15367667 -0.09560938 45 0 C43.91784299 3.12623137 42.54657865 5.82467313 40.765625 8.59375 C40.35699219 9.23183594 39.94835937 9.86992187 39.52734375 10.52734375 C38.67113561 11.84962237 37.80376973 13.1647383 36.92578125 14.47265625 C34.49290951 18.20198389 34.49290951 18.20198389 34.4453125 22.4921875 C34.95835937 23.31976563 35.47140625 24.14734375 36 25 C36.33837891 25.57459961 36.67675781 26.14919922 37.02539062 26.74121094 C38.6035451 29.40620764 40.24880309 32.02723927 41.8984375 34.6484375 C45 39.68344156 45 39.68344156 45 43 C39.84841795 43.58987581 35.12918736 43.90042161 30 43 C26.8747093 40.11028398 25.32411477 37.01845775 24 33 C24 32.34 24 31.68 24 31 C23.34 31 22.68 31 22 31 C21.7525 31.680625 21.505 32.36125 21.25 33.0625 C19.75802092 36.56865083 17.93164489 39.71620368 16 43 C11.05 43 6.1 43 1 43 C0.67 42.34 0.34 41.68 0 41 C1.2578125 38.6796875 1.2578125 38.6796875 3.125 35.875 C3.76566406 34.89015625 4.40632813 33.9053125 5.06640625 32.890625 C6.23992863 31.13626832 7.43073863 29.39309639 8.65234375 27.671875 C9.35037109 26.65867187 9.35037109 26.65867187 10.0625 25.625 C10.48660156 25.03976562 10.91070312 24.45453125 11.34765625 23.8515625 C12.21228776 21.9511166 12.21228776 21.9511166 11.40625 19.75390625 C9.57568879 16.16905721 7.54286962 12.74162492 5.4375 9.3125 C1.07751092 2.15502183 1.07751092 2.15502183 0 0 Z " fill="#0E55B6" transform="translate(302,382)"/>
<path d="M0 0 C0 4.29 0 8.58 0 13 C-3.28776042 13.22786458 -6.57552083 13.45572917 -9.86328125 13.68359375 C-13.02590958 13.8867371 -13.02590958 13.8867371 -16 15 C-16.02505615 15.84296631 -16.0501123 16.68593262 -16.07592773 17.55444336 C-16.17088155 20.67241674 -16.27012448 23.79021503 -16.37231445 26.90795898 C-16.41571223 28.25914147 -16.4573837 29.61038053 -16.49731445 30.96166992 C-16.55489952 32.90036701 -16.61914298 34.83886276 -16.68359375 36.77734375 C-16.73858032 38.52905884 -16.73858032 38.52905884 -16.79467773 40.31616211 C-17 43 -17 43 -18 44 C-20.16480797 44.0989294 -22.33293785 44.129711 -24.5 44.125 C-25.6859375 44.12757813 -26.871875 44.13015625 -28.09375 44.1328125 C-31 44 -31 44 -32 43 C-32.08874135 39.89748799 -32.11518455 36.8173188 -32.09765625 33.71484375 C-32.0962413 32.78402481 -32.09482635 31.85320587 -32.09336853 30.8941803 C-32.08775172 27.90858809 -32.0751964 24.92306971 -32.0625 21.9375 C-32.05748716 19.91862087 -32.05292388 17.89974057 -32.04882812 15.88085938 C-32.03777683 10.92054428 -32.02050095 5.96028468 -32 1 C-27.71 1 -23.42 1 -19 1 C-19 2.32 -19 3.64 -19 5 C-18.07380859 4.45859375 -18.07380859 4.45859375 -17.12890625 3.90625 C-11.03113909 0.56500772 -6.93730602 -0.55946016 0 0 Z " fill="#1056B7" transform="translate(276,381)"/>
<path d="M0 0 C6.6 0 13.2 0 20 0 C20 13.86 20 27.72 20 42 C15.38 42 10.76 42 6 42 C5.67 32.1 5.34 22.2 5 12 C3.35 11.67 1.7 11.34 0 11 C0 7.37 0 3.74 0 0 Z " fill="#0C54B6" transform="translate(279,383)"/>
<path d="M0 0 C4.62 0 9.24 0 14 0 C14 3.96 14 7.92 14 12 C9.38 12 4.76 12 0 12 C0 8.04 0 4.08 0 0 Z " fill="#0E53B4" transform="translate(285,367)"/>
<path d="M0 0 C4.62 0 9.24 0 14 0 C14 0.33 14 0.66 14 1 C10.37 1 6.74 1 3 1 C3 1.66 3 2.32 3 3 C2.34 3 1.68 3 1 3 C1 18.18 1 33.36 1 49 C0.67 49 0.34 49 0 49 C0 32.83 0 16.66 0 0 Z " fill="#0C4EAB" transform="translate(48,368)"/>
<path d="M0 0 C0.66 0.99 1.32 1.98 2 3 C1 4 1 4 -2.16015625 4.09765625 C-4.09181641 4.08025391 -4.09181641 4.08025391 -6.0625 4.0625 C-7.35285156 4.05347656 -8.64320312 4.04445313 -9.97265625 4.03515625 C-10.97167969 4.02355469 -11.97070312 4.01195312 -13 4 C-13 3.34 -13 2.68 -13 2 C-8.71 2 -4.42 2 0 2 C0 1.34 0 0.68 0 0 Z " fill="#406BB1" transform="translate(90,421)"/>
<path d="M0 0 C0.99 0 1.98 0 3 0 C1.60667426 3.36720387 0.0210714 4.9859524 -3 7 C-2.67 5.35 -2.34 3.7 -2 2 C-1.34 2 -0.68 2 0 2 C0 1.34 0 0.68 0 0 Z " fill="#2566AE" transform="translate(98,181)"/>
</svg>
